<svg id="Group_128" data-name="Group 128" xmlns="http://www.w3.org/2000/svg" xmlns:xlink="http://www.w3.org/1999/xlink" width="37.799" height="37.799" viewBox="0 0 37.799 37.799">
  <defs>
    <clipPath id="clip-path">
      <rect id="Rectangle_100" data-name="Rectangle 100" width="37.799" height="37.799" transform="translate(0 0)" fill="#cf6954"/>
    </clipPath>
  </defs>
  <g id="Group_127" data-name="Group 127" clip-path="url(#clip-path)">
    <path id="Path_56" data-name="Path 56" d="M18.9,0A18.9,18.9,0,1,0,37.8,18.9,18.921,18.921,0,0,0,18.9,0m0,35.8A16.9,16.9,0,1,1,35.8,18.9,16.918,16.918,0,0,1,18.9,35.8" fill="#cf6954"/>
    <path id="Path_57" data-name="Path 57" d="M25.821,10.2,14.926,14.867l-.012.007a1.14,1.14,0,0,0-.122.071c-.029.019-.061.034-.088.055s-.058.056-.087.084-.059.056-.084.087-.036.059-.055.088a1.14,1.14,0,0,0-.071.122l-.007.012-4.67,10.9a1,1,0,0,0,.919,1.394.989.989,0,0,0,.394-.081l10.895-4.669.012-.007a.924.924,0,0,0,.122-.071.869.869,0,0,0,.088-.055,3.447,3.447,0,0,0,.171-.171.721.721,0,0,0,.055-.088.924.924,0,0,0,.071-.122l.007-.011,4.67-10.9A1,1,0,0,0,25.821,10.2m-10.165,7.34,2.069,2.069,2.068,2.068-7.239,3.1Zm5.552,2.723-2.069-2.068-2.068-2.069,7.24-3.1Z" fill="#cf6954"/>
  </g>
</svg>
