<svg xmlns="http://www.w3.org/2000/svg" width="500.46" height="255.04" viewBox="0 0 500.46 255.04">
  <g id="Warstwa_2" data-name="Warstwa 2">
    <g id="Warstwa_1-2" data-name="Warstwa 1">
      <g>
        <path d="M497,119.4C469.85,92.13,375.82,6.46,262.37.62a119.16,119.16,0,0,0-24.28,0C124.64,6.46,30.6,92.13,3.42,119.4a11.7,11.7,0,0,0,0,16.53C31.57,164.17,131.4,255,250.23,255S468.89,164.17,497,135.93A11.7,11.7,0,0,0,497,119.4ZM360,118.22A109.72,109.72,0,1,1,250.23,8.5,109.84,109.84,0,0,1,360,118.22Z" style="fill: #1d1d1b"/>
        <path d="M250.23,8.5A109.72,109.72,0,1,0,360,118.22,109.84,109.84,0,0,0,250.23,8.5Zm0,168.53a58.8,58.8,0,0,1-57.13-72.76A29.92,29.92,0,0,0,234,61.7,58.81,58.81,0,1,1,250.23,177Z" style="fill: #fff"/>
        <path d="M250.23,59.41A58.78,58.78,0,0,0,234,61.7a29.92,29.92,0,0,1-40.89,42.57,58.81,58.81,0,1,0,57.13-44.86Z" style="fill: #1d1d1b"/>
      </g>
    </g>
  </g>
</svg>
