<svg xmlns="http://www.w3.org/2000/svg" width="153.52" height="138.24" viewBox="0 0 153.52 138.24">
  <g id="Warstwa_2" data-name="Warstwa 2">
    <g id="Warstwa_1-2" data-name="Warstwa 1">
      <path d="M71.14,96.75l-3.74,4.8q-28,36.69-43.59,36.69-11.67,0-23.81-19.17a33.25,33.25,0,0,0,6.44.9q19.62,0,44.63-32.2l5.84-7.34-4.19-5.09Q22.46,40.13,22.47,25.91,22.47,15.73,38.94,0,45.83,30.86,67.7,58.26L71,62.45l6.29-7.63q30.85-38.19,49.13-38.2,9,0,14.82,8.84,1.05,1.5,3,4.19Q121,40.14,92.26,72l-6.14,6.89,4.49,4.94q27.26,30,50.33,30a50.5,50.5,0,0,0,12.58-1.5Q146,127.9,141,132.7t-13.7,4.79q-18.87,0-49.13-33.1Z" style="fill: #cf6954"/>
    </g>
  </g>
</svg>
